<svg xmlns="http://www.w3.org/2000/svg" xmlns:xlink="http://www.w3.org/1999/xlink" width="500" zoomAndPan="magnify" viewBox="0 0 375 187.499995" height="250" preserveAspectRatio="xMidYMid meet" version="1.0"><defs><g/><clipPath id="4daeffc886"><path d="M 210 27 L 249.980469 27 L 249.980469 61.210938 L 210 61.210938 Z M 210 27 " clip-rule="nonzero"/></clipPath></defs><g fill="#ff4c4c" fill-opacity="1"><g transform="translate(20.536745, 152.553705)"><g><path d="M 55.046875 -112.40625 C 73.296875 -112.40625 87.226562 -107.6875 96.84375 -98.25 C 106.457031 -88.820312 111.265625 -74.804688 111.265625 -56.203125 C 111.265625 -37.648438 106.457031 -23.644531 96.84375 -14.1875 C 87.226562 -4.726562 73.296875 0 55.046875 0 L 14.609375 0 L 14.609375 -112.40625 Z M 53.75 -18.6875 C 65.332031 -18.6875 73.992188 -21.644531 79.734375 -27.5625 C 85.472656 -33.488281 88.34375 -43.035156 88.34375 -56.203125 C 88.34375 -69.378906 85.472656 -78.925781 79.734375 -84.84375 C 73.992188 -90.769531 65.332031 -93.734375 53.75 -93.734375 L 36.828125 -93.734375 L 36.828125 -18.6875 Z M 53.75 -18.6875 "/></g></g></g><g fill="#ff4c4c" fill-opacity="1"><g transform="translate(140.707202, 152.553705)"><g><path d="M 12.21875 0 L 12.21875 -84.8125 L 32.90625 -84.8125 L 32.90625 -72.203125 L 34.515625 -71.890625 C 36.566406 -76.609375 39.257812 -80.066406 42.59375 -82.265625 C 45.925781 -84.472656 49.976562 -85.578125 54.75 -85.578125 C 59.5625 -85.578125 63.222656 -84.753906 65.734375 -83.109375 L 62.125 -64.734375 L 60.515625 -64.4375 C 59.128906 -65 57.796875 -65.40625 56.515625 -65.65625 C 55.234375 -65.914062 53.671875 -66.046875 51.828125 -66.046875 C 45.878906 -66.046875 41.34375 -63.957031 38.21875 -59.78125 C 35.09375 -55.601562 33.53125 -48.898438 33.53125 -39.671875 L 33.53125 0 Z M 12.21875 0 "/></g></g></g><g fill="#ff4c4c" fill-opacity="1"><g transform="translate(207.212294, 152.553705)"><g><path d="M 22.84375 -94.953125 C 18.988281 -94.953125 15.859375 -96.117188 13.453125 -98.453125 C 11.046875 -100.785156 9.84375 -103.796875 9.84375 -107.484375 C 9.84375 -111.128906 11.046875 -114.117188 13.453125 -116.453125 C 15.859375 -118.785156 18.988281 -119.953125 22.84375 -119.953125 C 25.40625 -119.953125 27.679688 -119.410156 29.671875 -118.328125 C 31.671875 -117.253906 33.222656 -115.78125 34.328125 -113.90625 C 35.429688 -112.039062 35.984375 -109.898438 35.984375 -107.484375 C 35.984375 -105.078125 35.429688 -102.925781 34.328125 -101.03125 C 33.222656 -99.132812 31.671875 -97.644531 29.671875 -96.5625 C 27.679688 -95.488281 25.40625 -94.953125 22.84375 -94.953125 Z M 12.21875 0 L 12.21875 -84.8125 L 33.53125 -84.8125 L 33.53125 0 Z M 12.21875 0 "/></g></g></g><g fill="#ff4c4c" fill-opacity="1"><g transform="translate(252.881672, 152.553705)"><g><path d="M 12.21875 34.375 L 12.21875 -84.8125 L 33.53125 -84.8125 L 33.53125 -73.734375 L 35.140625 -73.421875 C 37.648438 -77.734375 41.003906 -80.976562 45.203125 -83.15625 C 49.410156 -85.332031 54.332031 -86.421875 59.96875 -86.421875 C 66.789062 -86.421875 72.75 -84.804688 77.84375 -81.578125 C 82.945312 -78.347656 86.921875 -73.4375 89.765625 -66.84375 C 92.609375 -60.257812 94.03125 -52.097656 94.03125 -42.359375 C 94.03125 -32.671875 92.53125 -24.546875 89.53125 -17.984375 C 86.539062 -11.429688 82.378906 -6.523438 77.046875 -3.265625 C 71.710938 -0.015625 65.5625 1.609375 58.59375 1.609375 C 53.3125 1.609375 48.75 0.726562 44.90625 -1.03125 C 41.0625 -2.800781 37.804688 -5.554688 35.140625 -9.296875 L 33.53125 -9 L 33.53125 34.375 Z M 52.671875 -16.453125 C 59.023438 -16.453125 63.84375 -18.523438 67.125 -22.671875 C 70.40625 -26.828125 72.046875 -33.390625 72.046875 -42.359375 C 72.046875 -51.335938 70.40625 -57.914062 67.125 -62.09375 C 63.84375 -66.269531 59.023438 -68.359375 52.671875 -68.359375 C 46.722656 -68.359375 42.003906 -66.203125 38.515625 -61.890625 C 35.035156 -57.585938 33.296875 -51.078125 33.296875 -42.359375 C 33.296875 -33.703125 35.035156 -27.21875 38.515625 -22.90625 C 42.003906 -18.601562 46.722656 -16.453125 52.671875 -16.453125 Z M 52.671875 -16.453125 "/></g></g></g><g clip-path="url(#4daeffc886)"><path fill="#ff4c4c" d="M 247.929688 31.871094 C 245.9375 28.792969 242.171875 26.894531 238.449219 27.097656 C 234.933594 27.289062 231.59375 29.34375 229.859375 32.328125 C 228.125 29.34375 224.785156 27.289062 221.273438 27.097656 C 217.546875 26.894531 213.78125 28.792969 211.789062 31.871094 C 210.5 33.867188 209.945312 36.273438 210.050781 38.628906 C 210.328125 44.910156 214.832031 50.128906 219.328125 54.203125 C 222.496094 57.074219 226.042969 59.539062 229.859375 61.515625 C 233.675781 59.539062 237.222656 57.074219 240.390625 54.203125 C 244.886719 50.128906 249.390625 44.910156 249.667969 38.628906 C 249.773438 36.273438 249.21875 33.867188 247.929688 31.871094 Z M 247.929688 31.871094 " fill-opacity="1" fill-rule="nonzero"/></g></svg>