<svg xmlns="http://www.w3.org/2000/svg" xmlns:xlink="http://www.w3.org/1999/xlink" width="500" zoomAndPan="magnify" viewBox="0 0 375 374.999991" height="500" preserveAspectRatio="xMidYMid meet" version="1.0"><defs><clipPath id="a3d29b0286"><path d="M 0 26 L 375 26 L 375 350.738281 L 0 350.738281 Z M 0 26 " clip-rule="nonzero"/></clipPath></defs><g clip-path="url(#a3d29b0286)"><path fill="#ff4c4c" d="M 357.644531 71.347656 C 338.890625 42.34375 303.417969 24.484375 268.363281 26.390625 C 235.277344 28.191406 203.824219 47.53125 187.5 75.640625 C 171.175781 47.53125 139.722656 28.191406 106.640625 26.390625 C 71.582031 24.484375 36.109375 42.34375 17.355469 71.347656 C 5.214844 90.125 -0.00390625 112.785156 0.976562 134.976562 C 3.589844 194.113281 46 243.269531 88.351562 281.625 C 118.167969 308.632812 151.582031 331.855469 187.503906 350.460938 C 223.429688 331.855469 256.832031 308.632812 286.652344 281.625 C 329 243.269531 371.410156 194.113281 374.023438 134.976562 C 375.003906 112.785156 369.785156 90.125 357.644531 71.347656 Z M 357.644531 71.347656 " fill-opacity="1" fill-rule="nonzero"/><path fill="#ff4c4c" d="M 357.644531 71.347656 C 338.890625 42.34375 303.417969 24.484375 268.363281 26.390625 C 235.277344 28.191406 203.824219 47.53125 187.5 75.640625 C 171.175781 47.53125 139.722656 28.191406 106.640625 26.390625 C 71.582031 24.484375 36.109375 42.34375 17.355469 71.347656 C 5.214844 90.125 -0.00390625 112.785156 0.976562 134.976562 C 3.589844 194.113281 46 243.269531 88.351562 281.625 C 118.167969 308.632812 151.582031 331.855469 187.503906 350.460938 C 223.429688 331.855469 256.832031 308.632812 286.652344 281.625 C 329 243.269531 371.410156 194.113281 374.023438 134.976562 C 375.003906 112.785156 369.785156 90.125 357.644531 71.347656 Z M 357.644531 71.347656 " fill-opacity="1" fill-rule="nonzero"/></g></svg>